<?xml version="1.0" encoding="utf-8"?>
<!-- Generator: Adobe Illustrator 27.9.0, SVG Export Plug-In . SVG Version: 6.00 Build 0)  -->
<svg version="1.1" id="back" xmlns="http://www.w3.org/2000/svg" xmlns:xlink="http://www.w3.org/1999/xlink" x="0px" y="0px"
	 viewBox="0 0 300 300" style="enable-background:new 0 0 300 300;" xml:space="preserve">
<style type="text/css">
	.st0{fill:#439D6F;}
</style>
<g>
	<rect class="st0" width="300" height="300"/>
</g>
<g>
	<g>
		<path d="M33.02,64.61h6.03v8.84c0,4.53-0.31,8.98-0.94,13.35c-0.63,4.36-1.56,8.46-2.79,12.28c-1.23,3.83-2.78,7.2-4.64,10.12
			c-1.86,2.92-4.02,5.23-6.48,6.93l-4.32-8.92c2.2-1.53,4.12-3.51,5.77-5.95c1.65-2.44,3.02-5.17,4.1-8.2
			c1.08-3.03,1.9-6.23,2.45-9.6c0.55-3.37,0.82-6.7,0.82-9.99V64.61z M21.98,59.68h29.58v9.35H21.98V59.68z M34.67,64.61h5.97v8.84
			c0,3.12,0.27,6.28,0.82,9.48c0.55,3.2,1.36,6.23,2.42,9.1c1.06,2.86,2.41,5.43,4.04,7.69c1.63,2.27,3.56,4.08,5.8,5.44l-4.15,9.01
			c-2.5-1.64-4.68-3.85-6.54-6.63c-1.86-2.78-3.41-5.98-4.66-9.6c-1.25-3.63-2.18-7.52-2.79-11.69c-0.61-4.17-0.91-8.43-0.91-12.79
			V64.61z M56.45,52.2h7.57v78.71h-7.57V52.2z"/>
		<path d="M72.67,83.99h47.73v8.92H72.67V83.99z M78.24,101.16h36.29v28.9H78.24V101.16z M78.52,55.69h33.33v8.93H78.52V55.69z
			 M107.14,110H85.69v11.14h21.45V110z M107.31,55.69h7.45v6.29c0,3.34-0.06,6.94-0.17,10.79c-0.11,3.85-0.57,8.33-1.37,13.43
			l-7.57-0.08c0.83-5.16,1.32-9.63,1.45-13.43c0.13-3.8,0.2-7.37,0.2-10.71V55.69z"/>
		<path d="M49,160.07c-0.68,1.47-1.36,3.06-2.02,4.76c-0.66,1.7-1.17,3-1.51,3.91c-1.25,3.34-2.87,6.94-4.86,10.79
			c-1.99,3.85-4.21,7.59-6.66,11.22c-2.45,3.63-5.03,6.86-7.76,9.69l-6.14-7.14c3.34-3.06,6.17-6.3,8.5-9.73
			c2.33-3.43,4.28-6.74,5.86-9.95c1.57-3.2,2.83-6.05,3.78-8.54c0.46-1.02,0.94-2.39,1.45-4.12c0.51-1.73,0.88-3.3,1.11-4.72
			L49,160.07z M67.77,173.07c-0.3,0.79-0.63,1.74-0.97,2.85s-0.65,2.2-0.91,3.27c-0.57,2.61-1.34,5.5-2.3,8.67
			c-0.97,3.17-2.11,6.43-3.44,9.77c-1.33,3.34-2.84,6.6-4.55,9.78c-2.65,4.93-5.88,9.65-9.67,14.15c-3.79,4.5-8.4,8.32-13.82,11.43
			l-6.6-8.58c3.94-1.87,7.38-4.04,10.3-6.5c2.92-2.46,5.46-5.11,7.62-7.95c2.16-2.83,4.04-5.67,5.63-8.5
			c1.29-2.27,2.5-4.77,3.64-7.52c1.14-2.75,2.13-5.48,2.99-8.2c0.85-2.72,1.45-5.16,1.79-7.31H38.25l2.62-9.69h16.21
			c0.87,0,1.75-0.09,2.65-0.26c0.89-0.17,1.66-0.42,2.3-0.76L67.77,173.07z M41.04,187.52c1.74,1.53,3.66,3.3,5.75,5.31
			c2.08,2.01,4.18,4.09,6.29,6.25c2.1,2.15,4.1,4.24,5.97,6.25c1.88,2.01,3.48,3.84,4.81,5.48l-5.46,9.61
			c-1.25-1.76-2.8-3.74-4.64-5.95c-1.84-2.21-3.82-4.49-5.94-6.84c-2.12-2.35-4.21-4.6-6.26-6.76c-2.05-2.15-3.91-4.02-5.57-5.61
			L41.04,187.52z M62.31,155.56c0.49,0.96,1.01,2.17,1.56,3.61c0.55,1.44,1.09,2.88,1.62,4.29c0.53,1.42,0.97,2.66,1.31,3.74
			l-4.55,2.89c-0.57-1.76-1.26-3.75-2.08-5.99c-0.82-2.24-1.6-4.18-2.36-5.82L62.31,155.56z M69.03,151.65
			c0.49,1.08,1.03,2.34,1.62,3.78c0.59,1.45,1.16,2.86,1.71,4.25c0.55,1.39,0.98,2.56,1.28,3.53l-4.49,2.97
			c-0.61-1.81-1.33-3.82-2.16-6.04c-0.83-2.21-1.65-4.11-2.45-5.7L69.03,151.65z"/>
		<path d="M90.41,179.36c0.38,1.08,0.81,2.46,1.28,4.16c0.47,1.7,0.96,3.49,1.45,5.36c0.49,1.87,0.98,3.68,1.45,5.44
			c0.47,1.76,0.84,3.23,1.11,4.42l-6.94,3.91c-0.23-1.13-0.56-2.61-1-4.42c-0.44-1.81-0.92-3.72-1.45-5.74
			c-0.53-2.01-1.03-3.87-1.51-5.57c-0.47-1.7-0.88-3-1.22-3.91L90.41,179.36z M124.6,181.06c-0.3,1.36-0.56,2.52-0.77,3.49
			c-0.21,0.96-0.41,1.87-0.6,2.72c-0.72,4.31-1.71,8.6-2.96,12.88c-1.25,4.28-2.84,8.29-4.78,12.03c-2.65,5.1-5.66,9.42-9.02,12.96
			c-3.36,3.54-6.7,6.25-10.04,8.12l-5.97-9.1c2.08-0.85,4.28-2.11,6.6-3.78c2.31-1.67,4.55-3.7,6.71-6.08s4.02-5.02,5.57-7.91
			c1.29-2.44,2.44-5.23,3.44-8.37c1-3.15,1.84-6.52,2.5-10.12c0.66-3.6,1.11-7.15,1.34-10.67L124.6,181.06z M103.61,174.86
			c0.27,0.91,0.62,2.2,1.05,3.87c0.44,1.67,0.9,3.46,1.39,5.36c0.49,1.9,0.93,3.7,1.31,5.4c0.38,1.7,0.68,3.03,0.91,4l-6.83,3.57
			c-0.15-1.08-0.42-2.44-0.8-4.08c-0.38-1.64-0.8-3.39-1.25-5.23c-0.46-1.84-0.91-3.61-1.37-5.31s-0.85-3.12-1.19-4.25
			L103.61,174.86z"/>
		<path d="M140.59,177.41c0.95,0.79,2.02,1.71,3.21,2.76c1.19,1.05,2.4,2.14,3.61,3.27c1.21,1.13,2.36,2.21,3.44,3.23
			c1.08,1.02,1.98,1.93,2.7,2.72l-4.15,9.52c-0.83-0.85-1.78-1.8-2.84-2.85c-1.06-1.05-2.19-2.15-3.38-3.31
			c-1.19-1.16-2.37-2.25-3.53-3.27c-1.16-1.02-2.23-1.9-3.21-2.63L140.59,177.41z M138.77,218.38c2.16-0.57,4.33-1.26,6.51-2.08
			c2.18-0.82,4.36-1.86,6.54-3.1c2.18-1.25,4.29-2.69,6.34-4.33c3.22-2.72,6.23-5.78,9.02-9.18s5.29-7.03,7.51-10.88
			c2.22-3.85,4.09-7.79,5.6-11.82l4.38,11.56c-2.65,5.89-5.93,11.45-9.81,16.66c-3.89,5.21-8.16,9.83-12.83,13.85
			c-1.93,1.64-4.05,3.17-6.34,4.59c-2.29,1.42-4.55,2.65-6.77,3.7c-2.22,1.05-4.18,1.8-5.89,2.25L138.77,218.38z M149.35,158.03
			c0.91,0.79,1.95,1.73,3.13,2.8c1.18,1.08,2.38,2.18,3.61,3.32c1.23,1.13,2.39,2.22,3.47,3.27c1.08,1.05,2,1.97,2.76,2.76
			l-4.27,9.43c-0.76-0.85-1.69-1.81-2.79-2.89c-1.1-1.08-2.24-2.18-3.41-3.32c-1.18-1.13-2.34-2.22-3.5-3.27
			c-1.16-1.05-2.21-1.97-3.16-2.76L149.35,158.03z"/>
		<path d="M196.67,215.66c0.76,0.11,1.64,0.21,2.65,0.3c1,0.08,2,0.13,2.99,0.13c0.57,0,1.62,0,3.16,0s3.36,0,5.46,0
			c2.1,0,4.29,0,6.54,0s4.42,0,6.49,0c2.07,0,3.84,0,5.32,0c1.48,0,2.43,0,2.84,0c0.72,0,1.65-0.03,2.79-0.08s2.07-0.14,2.79-0.26
			v10.97c-0.38-0.06-0.9-0.1-1.56-0.13c-0.66-0.03-1.35-0.06-2.05-0.08c-0.7-0.03-1.32-0.04-1.85-0.04c-0.46,0-1.44,0-2.96,0
			s-3.32,0-5.4,0c-2.09,0-4.28,0-6.57,0c-2.29,0-4.49,0-6.6,0c-2.11,0-3.92,0-5.43,0c-1.52,0-2.5,0-2.96,0
			c-0.99,0-1.9,0.01-2.73,0.04c-0.83,0.03-1.8,0.1-2.9,0.21V215.66z M231.83,184.8c-0.15,0.57-0.27,1.19-0.34,1.87
			c-0.08,0.68-0.15,1.25-0.23,1.7c-0.11,1.19-0.28,2.83-0.48,4.93c-0.21,2.1-0.44,4.41-0.68,6.93c-0.25,2.52-0.5,5.06-0.77,7.61
			s-0.5,4.87-0.71,6.97c-0.21,2.1-0.39,3.77-0.54,5.01h-7.79c0.15-1.19,0.32-2.71,0.51-4.55c0.19-1.84,0.41-3.85,0.65-6.04
			c0.25-2.18,0.47-4.38,0.68-6.59c0.21-2.21,0.39-4.25,0.54-6.12c0.15-1.87,0.25-3.37,0.29-4.51c-0.53,0-1.34,0-2.42,0
			s-2.29,0-3.64,0c-1.35,0-2.67,0-3.98,0c-1.31,0-2.44,0-3.38,0c-0.95,0-1.59,0-1.93,0c-0.91,0-1.89,0.04-2.93,0.13
			s-1.96,0.18-2.76,0.3v-11.22c0.49,0.11,1.08,0.2,1.76,0.26s1.37,0.11,2.08,0.17c0.7,0.06,1.3,0.08,1.79,0.08c0.57,0,1.35,0,2.33,0
			c0.99,0,2.07,0,3.24,0s2.35,0,3.53,0c1.17,0,2.25,0,3.21,0s1.72,0,2.25,0c0.42,0,0.91-0.03,1.48-0.08
			c0.57-0.06,1.12-0.16,1.65-0.3c0.53-0.14,0.89-0.33,1.08-0.55L231.83,184.8z"/>
		<path d="M256.06,226.54c-1.52,0-2.76-0.79-3.73-2.38c-0.97-1.58-1.45-3.51-1.45-5.78c0-2.38,0.48-4.33,1.45-5.87
			s2.21-2.29,3.73-2.29s2.76,0.76,3.73,2.29c0.97,1.53,1.45,3.49,1.45,5.87c0,2.27-0.48,4.19-1.45,5.78
			C258.82,225.74,257.58,226.54,256.06,226.54z M253.33,203.93l-1.19-31.37l-0.28-11.9h8.42l-0.29,11.9l-1.19,31.37H253.33z"/>
	</g>
</g>
</svg>
